<?xml version="1.0" encoding="UTF-8" standalone="no" ?>
<!DOCTYPE svg PUBLIC "-//W3C//DTD SVG 1.1//EN" "http://www.w3.org/Graphics/SVG/1.1/DTD/svg11.dtd">
<svg xmlns="http://www.w3.org/2000/svg" xmlns:xlink="http://www.w3.org/1999/xlink" version="1.1" width="640" height="480" viewBox="0 0 640 480" xml:space="preserve">
<desc>Created with Fabric.js 3.6.6</desc>
<defs>
</defs>
<g transform="matrix(1.33 0 0 1.33 319.52 304.95)"  >
<path style="stroke: none; stroke-width: 1; stroke-dasharray: none; stroke-linecap: butt; stroke-dashoffset: 0; stroke-linejoin: miter; stroke-miterlimit: 4; fill: rgb(39,105,85); fill-rule: nonzero; opacity: 1;"  transform=" translate(-105.54, -218.18)" d="M 177.47 139.46 C 178.99 135.72 185.48 136.01 186.26 140.12 C 186.77 144.72 186.61 149.39 186.23 153.99 C 185.36 161.89 178.85 168.42 171.21 170.11 C 137.15 170.31 103.07 170.2 69 170.33 C 64.31 170.35 59.58 170.07 54.92 170.78 C 51.74 171.97 49 174.77 48.58 178.22 C 47.85 185.44 48.7 192.73 48.02 199.96 C 47.86 202.04 45.95 203.76 43.87 203.76 C 35.57 204.21 27.25 203.63 18.95 204.12 C 15.08 204.15 11.63 207.09 10.62 210.75 C 10.17 213.47 10.11 216.23 10.08 218.98 C 10.09 235.98 10.11 252.99 10.08 270 C 10.1 274.41 9.91 278.86 10.65 283.23 C 11.75 287.27 15.84 290 19.97 289.75 C 76.99 289.94 134.01 289.71 191.03 289.78 C 195.19 290.07 199.18 287.23 200.41 283.27 C 201.08 278.88 200.87 274.42 200.89 269.99 C 200.85 255.33 200.87 240.67 200.87 226 C 200.84 220.91 201.15 215.78 200.44 210.72 C 199.23 206.74 195.29 203.76 191.08 204.05 C 149.71 204.04 108.34 203.83 66.96 203.86 C 64.81 203.8 62.6 203.94 60.5 203.41 C 57.71 202.26 56.99 198.19 58.95 195.97 C 60.31 194.05 62.92 194.5 64.95 194.36 C 106.98 194.54 149.01 194.17 191.05 194.42 C 194.77 194.36 198.54 195.2 201.63 197.35 C 206.16 200.11 208.69 204.96 210.49 209.77 C 209.66 216.15 210.08 222.59 210.03 229 C 210 244 210.09 259 209.97 274 C 209.93 277.1 210.16 280.21 210.56 283.3 C 209.26 287.09 207.83 291.03 204.88 293.88 C 202.25 296.62 198.66 298.08 195.22 299.5 C 188.84 298.69 182.41 299.06 176 299.04 C 127 299.03 78 299.07 29 298.98 C 24.59 298.9 20.16 299 15.78 299.53 C 12.32 298.11 8.75 296.62 6.11 293.89 C 3.43 291.21 2 287.63 0.52 284.22 C 1.3 277.84 0.94 271.4 0.98 265 C 0.98 249.66 0.93 234.33 1.03 219 C 1.06 215.92 0.85 212.85 0.51 209.79 C 2.75 202.43 8.45 195.71 16.4 194.59 C 23.82 194.08 31.27 194.55 38.7 194.25 C 39.03 187.17 37.74 179.79 40 172.94 C 42.71 165.68 50.17 160.59 57.94 160.85 C 93.98 160.69 130.02 160.96 166.06 160.7 C 170.14 161.03 174.5 159.07 176.04 155.09 C 177.7 150.05 176.19 144.57 177.47 139.46 Z" stroke-linecap="round" />
</g>
<g transform="matrix(1.33 0 0 1.33 319.81 375.4)"  >
<path style="stroke: none; stroke-width: 1; stroke-dasharray: none; stroke-linecap: butt; stroke-dashoffset: 0; stroke-linejoin: miter; stroke-miterlimit: 4; fill: rgb(39,105,85); fill-rule: nonzero; opacity: 1;"  transform=" translate(-105.53, -270.84)" d="M 89.38 266.38 C 98.22 265.68 107.15 266.33 116.02 266.07 C 118.49 266.27 121.69 265.38 123.45 267.66 C 126.12 270.42 123.85 275.81 119.95 275.57 C 110.05 275.58 100.12 275.73 90.22 275.5 C 85.73 274.98 85.02 267.72 89.38 266.38 Z" stroke-linecap="round" />
</g>
<g transform="matrix(1.33 0 0 1.33 288.06 311.61)"  >
<path style="stroke: none; stroke-width: 1; stroke-dasharray: none; stroke-linecap: butt; stroke-dashoffset: 0; stroke-linejoin: miter; stroke-miterlimit: 4; fill: rgb(39,105,85); fill-rule: nonzero; opacity: 1;"  transform=" translate(-81.69, -222.99)" d="M 77.09 218.33 C 79.94 218.23 82.81 218 85.65 218.39 C 86.98 219.84 86.32 222.17 86.51 223.98 C 86.26 225.13 86.82 226.87 85.62 227.58 C 82.79 227.99 79.92 227.74 77.08 227.66 C 76.79 224.56 76.79 221.43 77.09 218.33 Z" stroke-linecap="round" />
</g>
<g transform="matrix(1.33 0 0 1.33 221.3 343.49)"  >
<path style="stroke: none; stroke-width: 1; stroke-dasharray: none; stroke-linecap: butt; stroke-dashoffset: 0; stroke-linejoin: miter; stroke-miterlimit: 4; fill: rgb(39,105,85); fill-rule: nonzero; opacity: 1;"  transform=" translate(-31.62, -246.9)" d="M 23.29 242.32 C 28.49 241.82 33.77 241.95 38.99 242.19 C 42.61 242.07 44.86 246.74 42.71 249.57 C 41.11 252.24 37.66 251.64 35.04 251.79 C 30.92 251.66 26.71 252.14 22.64 251.33 C 18.39 250.01 18.87 243 23.29 242.32 Z" stroke-linecap="round" />
</g>
<g transform="matrix(1.33 0 0 1.33 256.39 343.54)"  >
<path style="stroke: none; stroke-width: 1; stroke-dasharray: none; stroke-linecap: butt; stroke-dashoffset: 0; stroke-linejoin: miter; stroke-miterlimit: 4; fill: rgb(39,105,85); fill-rule: nonzero; opacity: 1;"  transform=" translate(-57.92, -246.94)" d="M 53.26 242.23 C 56.29 242.11 59.45 241.66 62.4 242.61 C 62.63 245.39 63.25 248.53 62.12 251.13 C 59.56 252.39 56.29 251.69 53.48 251.52 C 52.8 248.47 53.15 245.32 53.26 242.23 Z" stroke-linecap="round" />
</g>
<g transform="matrix(1.33 0 0 1.33 307.04 343.46)"  >
<path style="stroke: none; stroke-width: 1; stroke-dasharray: none; stroke-linecap: butt; stroke-dashoffset: 0; stroke-linejoin: miter; stroke-miterlimit: 4; fill: rgb(39,105,85); fill-rule: nonzero; opacity: 1;"  transform=" translate(-95.92, -246.86)" d="M 92.27 242.29 C 94.97 241.79 97.84 241.73 100.48 242.57 C 100.87 245.49 100.9 248.49 100.41 251.41 C 97.52 251.88 94.51 252 91.63 251.39 C 90.74 248.53 91.08 245.42 91.48 242.49 L 92.27 242.29 Z" stroke-linecap="round" />
</g>
<g transform="matrix(1.33 0 0 1.33 332.62 343.5)"  >
<path style="stroke: none; stroke-width: 1; stroke-dasharray: none; stroke-linecap: butt; stroke-dashoffset: 0; stroke-linejoin: miter; stroke-miterlimit: 4; fill: rgb(39,105,85); fill-rule: nonzero; opacity: 1;"  transform=" translate(-115.1, -246.91)" d="M 110.68 242.03 C 113.62 242.06 116.61 241.84 119.51 242.49 C 119.99 245.41 120.25 248.52 119.37 251.39 C 116.49 251.97 113.48 251.91 110.59 251.4 C 109.99 248.3 110.28 245.13 110.68 242.03 Z" stroke-linecap="round" />
</g>
<g transform="matrix(1.33 0 0 1.33 383.31 343.5)"  >
<path style="stroke: none; stroke-width: 1; stroke-dasharray: none; stroke-linecap: butt; stroke-dashoffset: 0; stroke-linejoin: miter; stroke-miterlimit: 4; fill: rgb(39,105,85); fill-rule: nonzero; opacity: 1;"  transform=" translate(-153.11, -246.89)" d="M 149.34 242.36 C 152.04 241.67 154.9 241.86 157.61 242.39 C 157.99 245.39 158.28 248.55 157.46 251.5 C 154.67 251.72 151.41 252.39 148.87 251.13 C 147.77 248.52 148.41 245.39 148.61 242.61 L 149.34 242.36 Z" stroke-linecap="round" />
</g>
<g transform="matrix(1.33 0 0 1.33 418.33 343.46)"  >
<path style="stroke: none; stroke-width: 1; stroke-dasharray: none; stroke-linecap: butt; stroke-dashoffset: 0; stroke-linejoin: miter; stroke-miterlimit: 4; fill: rgb(39,105,85); fill-rule: nonzero; opacity: 1;"  transform=" translate(-179.4, -246.89)" d="M 170.43 242.5 C 176.12 241.68 181.99 241.91 187.72 242.33 C 192.14 243.01 192.6 250.01 188.35 251.33 C 183.94 252.16 179.4 251.66 174.94 251.77 C 172.86 251.62 170.3 252 168.8 250.22 C 166.5 247.99 167.36 243.55 170.43 242.5 Z" stroke-linecap="round" />
</g>
<g transform="matrix(1.33 0 0 1.33 218.1 375.4)"  >
<path style="stroke: none; stroke-width: 1; stroke-dasharray: none; stroke-linecap: butt; stroke-dashoffset: 0; stroke-linejoin: miter; stroke-miterlimit: 4; fill: rgb(39,105,85); fill-rule: nonzero; opacity: 1;"  transform=" translate(-29.21, -270.82)" d="M 22.4 266.44 C 26.77 265.72 31.31 265.92 35.71 266.33 C 39.83 267.58 39.67 274.27 35.55 275.38 C 31.52 275.83 27.41 275.72 23.37 275.47 C 19.03 274.87 18.35 268.01 22.4 266.44 Z" stroke-linecap="round" />
</g>
<g transform="matrix(1.33 0 0 1.33 275.32 375.44)"  >
<path style="stroke: none; stroke-width: 1; stroke-dasharray: none; stroke-linecap: butt; stroke-dashoffset: 0; stroke-linejoin: miter; stroke-miterlimit: 4; fill: rgb(39,105,85); fill-rule: nonzero; opacity: 1;"  transform=" translate(-72.13, -270.86)" d="M 67.7 266.03 C 70.67 265.99 73.68 265.76 76.61 266.37 C 77.01 269.34 77.31 272.49 76.39 275.39 C 73.59 275.66 70.5 276.19 67.83 275.16 C 66.76 272.28 67.52 269.03 67.7 266.03 Z" stroke-linecap="round" />
</g>
<g transform="matrix(1.33 0 0 1.33 364.3 375.43)"  >
<path style="stroke: none; stroke-width: 1; stroke-dasharray: none; stroke-linecap: butt; stroke-dashoffset: 0; stroke-linejoin: miter; stroke-miterlimit: 4; fill: rgb(39,105,85); fill-rule: nonzero; opacity: 1;"  transform=" translate(-138.87, -270.86)" d="M 134.38 266.36 C 137.31 265.75 140.32 265.99 143.29 265.97 C 143.46 268.98 144.27 272.28 143.15 275.16 C 140.5 276.21 137.4 275.65 134.61 275.39 C 133.69 272.48 133.99 269.33 134.38 266.36 Z" stroke-linecap="round" />
</g>
<g transform="matrix(1.33 0 0 1.33 421.5 375.41)"  >
<path style="stroke: none; stroke-width: 1; stroke-dasharray: none; stroke-linecap: butt; stroke-dashoffset: 0; stroke-linejoin: miter; stroke-miterlimit: 4; fill: rgb(39,105,85); fill-rule: nonzero; opacity: 1;"  transform=" translate(-181.78, -270.84)" d="M 175.3 266.36 C 179.44 265.76 183.68 265.97 187.84 266.25 C 192.21 267.03 192.46 273.91 188.36 275.32 C 184.1 275.86 179.72 275.77 175.45 275.38 C 171.34 274.29 171.15 267.55 175.3 266.36 Z" stroke-linecap="round" />
</g>
<g transform="matrix(1.33 0 0 1.33 329.74 241.58)"  >
<path style="stroke: none; stroke-width: 1; stroke-dasharray: none; stroke-linecap: butt; stroke-dashoffset: 0; stroke-linejoin: miter; stroke-miterlimit: 4; fill: rgb(12,34,28); fill-rule: nonzero; opacity: 0.45;"  transform=" translate(-113.06, -170.44)" d="M 54.92 170.78 C 59.58 170.07 64.31 170.35 69 170.33 C 103.07 170.2 137.15 170.31 171.21 170.11 C 165.19 171.09 159.07 170.57 153 170.64 C 120.31 170.72 87.61 170.55 54.92 170.78 Z" stroke-linecap="round" />
</g>
<g transform="matrix(1.33 0 0 1.33 179.85 343.53)"  >
<path style="stroke: none; stroke-width: 1; stroke-dasharray: none; stroke-linecap: butt; stroke-dashoffset: 0; stroke-linejoin: miter; stroke-miterlimit: 4; fill: rgb(7,20,15); fill-rule: nonzero; opacity: 0.38;"  transform=" translate(-0.52, -247)" d="M 0 210.94 L 0.51 209.79 C 0.85 212.85 1.06 215.92 1.03 219 C 0.93 234.33 0.98 249.66 0.98 265 C 0.94 271.4 1.3 277.84 0.52 284.22 L 0 283.08 L 0 210.94 Z" stroke-linecap="round" />
</g>
<g transform="matrix(1.33 0 0 1.33 459.8 342.89)"  >
<path style="stroke: none; stroke-width: 1; stroke-dasharray: none; stroke-linecap: butt; stroke-dashoffset: 0; stroke-linejoin: miter; stroke-miterlimit: 4; fill: rgb(7,20,15); fill-rule: nonzero; opacity: 0.38;"  transform=" translate(-210.48, -246.54)" d="M 210.49 209.77 L 211 210.91 L 211 282.14 L 210.56 283.3 C 210.16 280.21 209.93 277.1 209.97 274 C 210.09 259 210 244 210.03 229 C 210.08 222.59 209.66 216.15 210.49 209.77 Z" stroke-linecap="round" />
</g>
<g transform="matrix(1.33 0 0 1.33 193.01 343.5)"  >
<path style="stroke: none; stroke-width: 1; stroke-dasharray: none; stroke-linecap: butt; stroke-dashoffset: 0; stroke-linejoin: miter; stroke-miterlimit: 4; fill: rgb(5,14,11); fill-rule: nonzero; opacity: 0.3;"  transform=" translate(-10.37, -246.99)" d="M 10.08 218.98 C 10.11 216.23 10.17 213.47 10.62 210.75 C 10.72 234.91 10.66 259.08 10.65 283.23 C 9.91 278.86 10.1 274.41 10.08 270 C 10.11 252.99 10.09 235.98 10.08 218.98 Z" stroke-linecap="round" />
</g>
<g transform="matrix(1.33 0 0 1.33 446.64 343.5)"  >
<path style="stroke: none; stroke-width: 1; stroke-dasharray: none; stroke-linecap: butt; stroke-dashoffset: 0; stroke-linejoin: miter; stroke-miterlimit: 4; fill: rgb(5,16,13); fill-rule: nonzero; opacity: 0.35;"  transform=" translate(-200.6, -247)" d="M 200.44 210.72 C 201.15 215.78 200.84 220.91 200.87 226 C 200.87 240.67 200.85 255.33 200.89 269.99 C 200.87 274.42 201.08 278.88 200.41 283.27 C 200.28 259.09 200.23 234.9 200.44 210.72 Z" stroke-linecap="round" />
</g>
<g transform="matrix(1.33 0 0 1.33 224.4 311.6)"  >
<path style="stroke: none; stroke-width: 1; stroke-dasharray: none; stroke-linecap: butt; stroke-dashoffset: 0; stroke-linejoin: miter; stroke-miterlimit: 4; fill: rgb(39,104,85); fill-rule: nonzero; opacity: 1;"  transform=" translate(-33.96, -222.97)" d="M 22.47 218.6 C 29.59 217.83 36.83 218.34 43.99 218.31 C 49.12 218.22 49.78 226.73 44.81 227.59 C 37.62 227.84 30.38 227.84 23.19 227.59 C 18.92 226.85 18.46 220.12 22.47 218.6 Z" stroke-linecap="round" />
</g>
<g transform="matrix(1.33 0 0 1.33 262.6 311.62)"  >
<path style="stroke: none; stroke-width: 1; stroke-dasharray: none; stroke-linecap: butt; stroke-dashoffset: 0; stroke-linejoin: miter; stroke-miterlimit: 4; fill: rgb(39,104,85); fill-rule: nonzero; opacity: 1;"  transform=" translate(-62.59, -223.01)" d="M 58.05 218.33 C 61.1 218.23 64.14 218.23 67.19 218.29 C 67.39 221.43 67.39 224.58 67.19 227.72 C 64.1 227.79 61.02 227.77 57.93 227.67 C 57.79 224.56 57.8 221.44 58.05 218.33 Z" stroke-linecap="round" />
</g>
<g transform="matrix(1.33 0 0 1.33 364.3 311.62)"  >
<path style="stroke: none; stroke-width: 1; stroke-dasharray: none; stroke-linecap: butt; stroke-dashoffset: 0; stroke-linejoin: miter; stroke-miterlimit: 4; fill: rgb(39,104,85); fill-rule: nonzero; opacity: 1;"  transform=" translate(-138.87, -223)" d="M 135.29 218.34 C 137.98 218.06 140.75 217.96 143.39 218.6 C 143.8 221.5 143.81 224.48 143.39 227.38 C 140.48 228.09 137.41 227.94 134.46 227.53 C 133.88 224.55 133.89 221.44 134.47 218.47 L 135.29 218.34 Z" stroke-linecap="round" />
</g>
<g transform="matrix(1.33 0 0 1.33 421.51 311.61)"  >
<path style="stroke: none; stroke-width: 1; stroke-dasharray: none; stroke-linecap: butt; stroke-dashoffset: 0; stroke-linejoin: miter; stroke-miterlimit: 4; fill: rgb(39,104,85); fill-rule: nonzero; opacity: 1;"  transform=" translate(-181.78, -222.99)" d="M 175.38 218.5 C 179.49 218 183.69 218.11 187.81 218.4 C 192.06 219.19 192.54 225.85 188.54 227.42 C 184.21 228.01 179.75 227.88 175.4 227.52 C 171.25 226.47 171.22 219.53 175.38 218.5 Z" stroke-linecap="round" />
</g>
<g transform="matrix(1.33 0 0 1.33 249.88 375.42)"  >
<path style="stroke: none; stroke-width: 1; stroke-dasharray: none; stroke-linecap: butt; stroke-dashoffset: 0; stroke-linejoin: miter; stroke-miterlimit: 4; fill: rgb(39,104,85); fill-rule: nonzero; opacity: 1;"  transform=" translate(-53.05, -270.85)" d="M 49.26 266.26 C 51.98 265.71 54.88 265.71 57.56 266.46 C 57.93 269.4 58.24 272.52 57.37 275.39 C 54.49 275.46 50.72 276.72 48.43 274.59 C 48.04 271.92 48.09 269.18 48.49 266.52 L 49.26 266.26 Z" stroke-linecap="round" />
</g>
<g transform="matrix(1.33 0 0 1.33 389.75 375.42)"  >
<path style="stroke: none; stroke-width: 1; stroke-dasharray: none; stroke-linecap: butt; stroke-dashoffset: 0; stroke-linejoin: miter; stroke-miterlimit: 4; fill: rgb(39,104,85); fill-rule: nonzero; opacity: 1;"  transform=" translate(-157.95, -270.84)" d="M 154.24 266.22 C 156.91 265.93 159.95 265.4 162.44 266.63 C 162.98 269.24 162.93 271.96 162.6 274.6 C 160.3 276.66 156.54 275.57 153.7 275.31 C 152.67 272.5 153.12 269.33 153.42 266.41 L 154.24 266.22 Z" stroke-linecap="round" />
</g>
<g transform="matrix(1.33 0 0 1.33 313.39 311.59)"  >
<path style="stroke: none; stroke-width: 1; stroke-dasharray: none; stroke-linecap: butt; stroke-dashoffset: 0; stroke-linejoin: miter; stroke-miterlimit: 4; fill: rgb(39,104,84); fill-rule: nonzero; opacity: 1;"  transform=" translate(-100.68, -222.97)" d="M 97.27 218.32 C 99.84 218.29 102.88 217.56 105.17 218.86 C 105.44 221.69 106.22 225.13 104.69 227.66 C 101.93 227.92 99.13 227.93 96.38 227.58 C 95.53 224.63 95.55 221.38 96.41 218.44 L 97.27 218.32 Z" stroke-linecap="round" />
</g>
<g transform="matrix(1.33 0 0 1.33 338.93 311.59)"  >
<path style="stroke: none; stroke-width: 1; stroke-dasharray: none; stroke-linecap: butt; stroke-dashoffset: 0; stroke-linejoin: miter; stroke-miterlimit: 4; fill: rgb(39,104,84); fill-rule: nonzero; opacity: 1;"  transform=" translate(-119.82, -222.99)" d="M 116.28 218.32 C 118.72 218.07 121.2 218.03 123.64 218.36 C 125.02 219.5 124.55 221.44 124.7 223 C 124.55 224.56 125.04 226.51 123.64 227.64 C 120.92 227.94 118.15 227.92 115.44 227.55 C 114.77 224.57 114.8 221.43 115.45 218.44 L 116.28 218.32 Z" stroke-linecap="round" />
</g>
<g transform="matrix(1.33 0 0 1.33 389.77 311.61)"  >
<path style="stroke: none; stroke-width: 1; stroke-dasharray: none; stroke-linecap: butt; stroke-dashoffset: 0; stroke-linejoin: miter; stroke-miterlimit: 4; fill: rgb(39,104,84); fill-rule: nonzero; opacity: 1;"  transform=" translate(-157.97, -222.99)" d="M 154.31 218.36 C 156.99 218.06 159.76 217.92 162.39 218.62 C 162.97 221.49 163.03 224.51 162.4 227.38 C 159.51 228.1 156.45 227.93 153.53 227.48 C 152.92 224.53 152.96 221.45 153.5 218.5 L 154.31 218.36 Z" stroke-linecap="round" />
</g>
<g transform="matrix(1.33 0 0 1.33 281.73 343.49)"  >
<path style="stroke: none; stroke-width: 1; stroke-dasharray: none; stroke-linecap: butt; stroke-dashoffset: 0; stroke-linejoin: miter; stroke-miterlimit: 4; fill: rgb(39,104,84); fill-rule: nonzero; opacity: 1;"  transform=" translate(-76.93, -246.9)" d="M 73.25 242.25 C 75.95 241.89 78.84 241.58 81.44 242.61 C 81.59 245.38 82.33 248.61 81.14 251.14 C 78.62 252.45 75.3 251.67 72.5 251.49 C 71.89 248.52 71.96 245.41 72.42 242.42 L 73.25 242.25 Z" stroke-linecap="round" />
</g>
<g transform="matrix(1.33 0 0 1.33 357.91 343.49)"  >
<path style="stroke: none; stroke-width: 1; stroke-dasharray: none; stroke-linecap: butt; stroke-dashoffset: 0; stroke-linejoin: miter; stroke-miterlimit: 4; fill: rgb(39,104,84); fill-rule: nonzero; opacity: 1;"  transform=" translate(-134.06, -246.9)" d="M 130.29 242.33 C 132.99 241.66 135.87 241.87 138.57 242.42 C 139.02 245.41 139.12 248.52 138.48 251.49 C 135.69 251.68 132.38 252.45 129.86 251.14 C 128.67 248.61 129.41 245.38 129.55 242.6 L 130.29 242.33 Z" stroke-linecap="round" />
</g>
<g transform="matrix(1.33 0 0 1.33 319.36 413.61)"  >
<path style="stroke: none; stroke-width: 1; stroke-dasharray: none; stroke-linecap: butt; stroke-dashoffset: 0; stroke-linejoin: miter; stroke-miterlimit: 4; fill: rgb(9,25,20); fill-rule: nonzero; opacity: 0.48;"  transform=" translate(-105.5, -299.48)" d="M 15.78 299.53 C 20.16 299 24.59 298.9 29 298.98 C 78 299.07 127 299.03 176 299.04 C 182.41 299.06 188.84 298.69 195.22 299.5 L 194.09 300 L 16.89 300 L 15.78 299.53 Z" stroke-linecap="round" />
</g>
<g transform="matrix(1.4 0 0 1.33 255.82 137.12)"  >
<path style="stroke: none; stroke-width: 1; stroke-dasharray: none; stroke-linecap: butt; stroke-dashoffset: 0; stroke-linejoin: miter; stroke-miterlimit: 4; fill: rgb(39,105,85); fill-rule: nonzero; opacity: 1;"  transform=" translate(-51.81, -52.59)" d="M 36.87 0 L 45.62 0 C 47.8 1.92 49.81 4.01 51.87 6.05 C 53.82 4.01 55.76 1.96 57.79 0 L 66.76 0 C 66.76 35.05 66.73 70.1 66.77 105.15 C 63.79 105.17 60.82 105.18 57.84 105.18 C 57.78 75.13 57.85 45.07 57.81 15.01 C 55.83 17 53.85 18.99 51.89 20.99 C 49.94 19.1 47.96 17.22 45.93 15.41 C 45.63 45.32 45.88 75.24 45.81 105.16 C 42.83 105.18 39.85 105.18 36.87 105.18 C 36.84 70.12 36.85 35.06 36.87 0 Z" stroke-linecap="round" />
</g>
<g transform="matrix(1.4 0 0 1.33 331.04 137.14)"  >
<path style="stroke: none; stroke-width: 1; stroke-dasharray: none; stroke-linecap: butt; stroke-dashoffset: 0; stroke-linejoin: miter; stroke-miterlimit: 4; fill: rgb(39,105,85); fill-rule: nonzero; opacity: 1;"  transform=" translate(-105.54, -52.59)" d="M 90.59 0 L 120.44 0 C 120.28 5.92 120.9 11.89 120.16 17.77 C 119.05 19.57 117.57 21.09 116.19 22.67 C 117.56 24.14 119.04 25.54 120.16 27.22 C 120.61 29.45 120.47 31.73 120.5 33.99 C 120.37 57.72 120.55 81.46 120.4 105.19 C 117.39 105.18 114.37 105.17 111.36 105.12 C 111.41 79.1 111.44 53.08 111.35 27.06 C 107.56 27.07 103.78 26.99 100 27.12 L 99.12 27.18 C 99.2 53.07 99.49 78.98 98.99 104.86 C 96.2 104.96 93.41 104.93 90.62 104.96 C 90.5 69.98 90.57 34.99 90.59 0 M 99.3 9.13 C 99.32 12.11 99.32 15.08 99.3 18.06 C 103.32 18.18 107.34 18.17 111.36 18.13 C 111.4 15.11 111.39 12.1 111.35 9.08 C 107.33 9.15 103.32 9.13 99.3 9.13 Z" stroke-linecap="round" />
</g>
<g transform="matrix(1.4 0 0 1.33 406.16 137.12)"  >
<path style="stroke: none; stroke-width: 1; stroke-dasharray: none; stroke-linecap: butt; stroke-dashoffset: 0; stroke-linejoin: miter; stroke-miterlimit: 4; fill: rgb(39,105,85); fill-rule: nonzero; opacity: 1;"  transform=" translate(-159.19, -52.59)" d="M 144.25 0 L 174.14 0 C 174.14 35.06 174.16 70.12 174.13 105.18 C 171.18 105.18 168.23 105.17 165.28 105.15 C 165.28 102.16 165.26 99.17 165.23 96.19 C 161.22 96.2 157.21 96.2 153.2 96.19 C 153.19 99.19 153.17 102.19 153.15 105.18 C 150.18 105.18 147.21 105.17 144.24 105.15 C 144.28 70.1 144.26 35.05 144.25 0 M 153.17 9.03 C 153.19 36.09 153.18 63.14 153.17 90.2 C 157.19 90.26 161.21 90.27 165.24 90.22 C 165.32 63.14 165.3 36.06 165.25 8.97 C 161.22 8.95 157.19 8.94 153.17 9.03 Z" stroke-linecap="round" />
</g>
<g transform="matrix(1.4 0 0 1.33 322.62 155.03)"  >
<path style="stroke: none; stroke-width: 1; stroke-dasharray: none; stroke-linecap: butt; stroke-dashoffset: 0; stroke-linejoin: miter; stroke-miterlimit: 4; fill: rgb(10,27,22); fill-rule: nonzero; opacity: 0.5;"  transform=" translate(-99.5, -65.99)" d="M 99.12 27.18 L 100 27.12 C 99.46 36.4 99.77 45.71 99.7 55 C 99.76 71.6 99.56 88.21 99.85 104.81 L 98.99 104.86 C 99.49 78.98 99.2 53.07 99.12 27.18 Z" stroke-linecap="round" />
</g>
</svg>