<?xml version="1.0" encoding="UTF-8" standalone="no"?>
<!-- Created with Inkscape (http://www.inkscape.org/) -->

<svg
    version="1.1"
    id="svg2"
    width="1600"
    height="1066.6667"
    viewBox="0 0 1600 1066.6667"
    sodipodi:docname="v602-nunoon-32-rippednotes.eps"
    xmlns:inkscape="http://www.inkscape.org/namespaces/inkscape"
    xmlns:sodipodi="http://sodipodi.sourceforge.net/DTD/sodipodi-0.dtd"
    xmlns="http://www.w3.org/2000/svg"
    xmlns:svg="http://www.w3.org/2000/svg">
    <defs
        id="defs6" />
    <sodipodi:namedview
        id="namedview4"
        pagecolor="#ffffff"
        bordercolor="#000000"
        borderopacity="0.25"
        inkscape:showpageshadow="2"
        inkscape:pageopacity="0.0"
        inkscape:pagecheckerboard="0"
        inkscape:deskcolor="#d1d1d1" />
    <g
        id="g8"
        inkscape:groupmode="layer"
        inkscape:label="ink_ext_XXXXXX"
        transform="matrix(1.3333333,0,0,-1.3333333,0,1066.6667)">
        <g
            id="g10"
            transform="scale(0.1)">
            <path
                d="M 12000,0 H 0 V 8000 H 12000 V 0"
                style="fill:#f6f6f6;fill-opacity:1;fill-rule:nonzero;stroke:none"
                id="path12" />
            <path
                d="M 12000,6944.33 H 0 v 13.33 h 12000 v -13.33"
                style="fill:#80b5bc;fill-opacity:1;fill-rule:nonzero;stroke:none"
                id="path14" />
            <path
                d="M 12000,6579.63 H 0 v 13.33 h 12000 v -13.33"
                style="fill:#80b5bc;fill-opacity:1;fill-rule:nonzero;stroke:none"
                id="path16" />
            <path
                d="M 12000,7640.37 H 0 v 13.34 h 12000 v -13.34"
                style="fill:#80b5bc;fill-opacity:1;fill-rule:nonzero;stroke:none"
                id="path18" />
            <path
                d="M 12000,7275.68 H 0 V 7289 h 12000 v -13.32"
                style="fill:#80b5bc;fill-opacity:1;fill-rule:nonzero;stroke:none"
                id="path20" />
            <path
                d="M 12000,6211.98 H 0 v 13.33 h 12000 v -13.33"
                style="fill:#80b5bc;fill-opacity:1;fill-rule:nonzero;stroke:none"
                id="path22" />
            <path
                d="M 12000,5847.28 H 0 v 13.34 h 12000 v -13.34"
                style="fill:#80b5bc;fill-opacity:1;fill-rule:nonzero;stroke:none"
                id="path24" />
            <path
                d="M 12000,5482.58 H 0 v 13.33 h 12000 v -13.33"
                style="fill:#80b5bc;fill-opacity:1;fill-rule:nonzero;stroke:none"
                id="path26" />
            <path
                d="M 12000,5115.96 H 0 v 13.33 h 12000 v -13.33"
                style="fill:#80b5bc;fill-opacity:1;fill-rule:nonzero;stroke:none"
                id="path28" />
            <path
                d="M 12000,4746.46 H 0 v 13.34 h 12000 v -13.34"
                style="fill:#80b5bc;fill-opacity:1;fill-rule:nonzero;stroke:none"
                id="path30" />
            <path
                d="M 12000,4379.63 H 0 v 13.33 h 12000 v -13.33"
                style="fill:#80b5bc;fill-opacity:1;fill-rule:nonzero;stroke:none"
                id="path32" />
            <path
                d="M 12000,4013.79 H 0 v 13.33 h 12000 v -13.33"
                style="fill:#80b5bc;fill-opacity:1;fill-rule:nonzero;stroke:none"
                id="path34" />
            <path
                d="M 12000,3647.61 H 0 v 13.34 h 12000 v -13.34"
                style="fill:#80b5bc;fill-opacity:1;fill-rule:nonzero;stroke:none"
                id="path36" />
            <path
                d="M 12000,3282.91 H 0 v 13.33 h 12000 v -13.33"
                style="fill:#80b5bc;fill-opacity:1;fill-rule:nonzero;stroke:none"
                id="path38" />
            <path
                d="M 12000,2918.22 H 0 v 13.33 h 12000 v -13.33"
                style="fill:#80b5bc;fill-opacity:1;fill-rule:nonzero;stroke:none"
                id="path40" />
            <path
                d="M 12000,2543.84 H 0 v 13.33 h 12000 v -13.33"
                style="fill:#80b5bc;fill-opacity:1;fill-rule:nonzero;stroke:none"
                id="path42" />
            <path
                d="M 12000,2176.19 H 0 v 13.33 h 12000 v -13.33"
                style="fill:#80b5bc;fill-opacity:1;fill-rule:nonzero;stroke:none"
                id="path44" />
            <path
                d="M 12000,1811.48 H 0 v 13.33 h 12000 v -13.33"
                style="fill:#80b5bc;fill-opacity:1;fill-rule:nonzero;stroke:none"
                id="path46" />
            <path
                d="M 12000,1446.79 H 0 v 13.33 h 12000 v -13.33"
                style="fill:#80b5bc;fill-opacity:1;fill-rule:nonzero;stroke:none"
                id="path48" />
            <path
                d="M 12000,1082.09 H 0 v 13.34 h 12000 v -13.34"
                style="fill:#80b5bc;fill-opacity:1;fill-rule:nonzero;stroke:none"
                id="path50" />
            <path
                d="M 12000,712.969 H 0 v 13.332 h 12000 v -13.332"
                style="fill:#80b5bc;fill-opacity:1;fill-rule:nonzero;stroke:none"
                id="path52" />
            <path
                d="M 12000,346.301 H 0 v 13.328 h 12000 v -13.328"
                style="fill:#80b5bc;fill-opacity:1;fill-rule:nonzero;stroke:none"
                id="path54" />
            <path
                d="m 1307.3,0 h -19.97 v 8000 h 19.97 V 0"
                style="fill:#c11f2f;fill-opacity:1;fill-rule:nonzero;stroke:none"
                id="path56" />
        </g>
    </g>
</svg>